D:\school\WTK\thesis\model\3dpredictsim\Results\debug_batch\Pog_s1_tmt_bCst_d00_k2000_ig24_act_TTC_GRF.mot
nRows=27
nColumns=19

name D:\school\WTK\thesis\model\3dpredictsim\Results\debug_batch\Pog_s1_tmt_bCst_d00_k2000_ig24_act_TTC_GRF.mot
datacolumns 19
datarows 27
range 0.0000000000 0.3168155221
endheader
time 	ground_force_vx	ground_force_vy	ground_force_vz	ground_force_px	ground_force_py	ground_force_pz	1_ground_force_vx	1_ground_force_vy	1_ground_force_vz	1_ground_force_px	1_ground_force_py	1_ground_force_pz	ground_torque_x	ground_torque_y	ground_torque_z	1_ground_torque_x	1_ground_torque_y	1_ground_torque_z
        0.0000000000	      -49.9018652537	       39.0239876673	       12.3804129612	        0.1921292214	        0.0000000000	        0.0512930299	      108.8811396669	      439.8766989396	       -1.0324670069	       -0.3503585904	        0.0000000000	       -0.0367992576	        0.0000000000	        0.0000000000	        0.0000000000	        0.0000000000	        0.0000000000	        0.0000000000	
        0.0121852124	     -120.6129085547	      123.1361128797	       42.7883545215	        0.2003190845	        0.0000000000	        0.0493963266	       76.7874604191	      339.5015132817	       -6.3432007231	       -0.3432534968	        0.0000000000	       -0.0341238331	        0.0000000000	        0.0000000000	        0.0000000000	        0.0000000000	        0.0000000000	        0.0000000000	
        0.0243704248	      -60.5789573427	      299.2742159045	       16.3506410090	        0.2059403059	        0.0000000000	        0.0475622158	       42.1161706685	      225.7121377576	      -13.6369948273	       -0.3303537415	        0.0000000000	       -0.0288989209	        0.0000000000	        0.0000000000	        0.0000000000	        0.0000000000	        0.0000000000	        0.0000000000	
        0.0365556372	      -57.3677919480	      497.9533846474	       -4.3501010119	        0.2091022812	        0.0000000000	        0.0474312613	       27.3879865595	      168.2578278846	      -15.5770497881	       -0.3216998650	        0.0000000000	       -0.0249443725	        0.0000000000	        0.0000000000	        0.0000000000	        0.0000000000	        0.0000000000	        0.0000000000	
        0.0487408496	     -100.4885577057	      707.5229860910	      -14.5224053083	        0.2175676055	        0.0000000000	        0.0493598798	       25.4162572053	      134.1101762711	      -14.0139357818	       -0.3212853040	        0.0000000000	       -0.0248948204	        0.0000000000	        0.0000000000	        0.0000000000	        0.0000000000	        0.0000000000	        0.0000000000	
        0.0609260619	     -134.4615880507	      851.4970815292	      -20.2734025518	        0.2257659854	        0.0000000000	        0.0513181425	       15.7939223410	       87.1966269365	      -14.2700452630	       -0.3209874087	        0.0000000000	       -0.0251511821	        0.0000000000	        0.0000000000	        0.0000000000	        0.0000000000	        0.0000000000	        0.0000000000	
        0.0731112743	     -143.3258689144	      887.5651410025	      -20.9798148884	        0.2311627199	        0.0000000000	        0.0524840431	        1.4357686880	       35.0165919295	       -8.7835830179	       -0.3213783573	        0.0000000000	       -0.0253043669	        0.0000000000	        0.0000000000	        0.0000000000	        0.0000000000	        0.0000000000	        0.0000000000	
        0.0852964867	     -134.2422882095	      867.9693652488	      -20.0392807678	        0.2350744512	        0.0000000000	        0.0531785757	        0.2736141804	       -0.2759879194	        0.0082416037	        0.0000000000	        0.0000000000	        0.0000000000	        0.0000000000	        0.0000000000	        0.0000000000	        0.0000000000	        0.0000000000	        0.0000000000	
        0.0974816991	     -118.0216244672	      825.9074412547	      -19.1651350213	        0.2386809808	        0.0000000000	        0.0535648691	        0.0017154721	       -0.0013777996	       -0.0001033510	        0.0000000000	        0.0000000000	        0.0000000000	        0.0000000000	        0.0000000000	        0.0000000000	        0.0000000000	        0.0000000000	        0.0000000000	
        0.1096669115	     -103.0184224306	      780.4398627547	      -18.3008132900	        0.2425217004	        0.0000000000	        0.0536956019	        0.0025274316	       -0.0017339059	       -0.0001907636	        0.0000000000	        0.0000000000	        0.0000000000	        0.0000000000	        0.0000000000	        0.0000000000	        0.0000000000	        0.0000000000	        0.0000000000	
        0.1218521239	      -90.3277944031	      741.1010146933	      -17.8089477287	        0.2467847835	        0.0000000000	        0.0536638037	        0.0314783672	       -0.0192312596	       -0.0025147046	        0.0000000000	        0.0000000000	        0.0000000000	        0.0000000000	        0.0000000000	        0.0000000000	        0.0000000000	        0.0000000000	        0.0000000000	
        0.1340373363	      -80.4383394592	      711.5509346633	      -17.6285320037	        0.2517613170	        0.0000000000	        0.0534538220	       -0.1745279150	        0.0974871629	        0.0141528206	        0.0000000000	        0.0000000000	        0.0000000000	        0.0000000000	        0.0000000000	        0.0000000000	        0.0000000000	        0.0000000000	        0.0000000000	
        0.1462225487	      -70.9532431468	      685.4553639629	      -18.3348132080	        0.2568518542	        0.0000000000	        0.0531632848	       -0.1316877331	        0.0691284779	        0.0101639835	        0.0000000000	        0.0000000000	        0.0000000000	        0.0000000000	        0.0000000000	        0.0000000000	        0.0000000000	        0.0000000000	        0.0000000000	
        0.1584077611	      -61.7732179036	      660.3826753614	      -19.1310789550	        0.2616547875	        0.0000000000	        0.0529374748	       -0.0771716475	        0.0385131243	        0.0057767783	        0.0000000000	        0.0000000000	        0.0000000000	        0.0000000000	        0.0000000000	        0.0000000000	        0.0000000000	        0.0000000000	        0.0000000000	
        0.1705929734	      -53.0355284537	      638.7452622565	      -19.4193497993	        0.2662708500	        0.0000000000	        0.0527951142	       -0.0530730148	        0.0253995603	        0.0038829664	        0.0000000000	        0.0000000000	        0.0000000000	        0.0000000000	        0.0000000000	        0.0000000000	        0.0000000000	        0.0000000000	        0.0000000000	
        0.1827781858	      -45.4046048258	      620.8461305493	      -19.8793371328	        0.2708604615	        0.0000000000	        0.0526940202	       -0.0457386156	        0.0211323376	        0.0032830133	        0.0000000000	        0.0000000000	        0.0000000000	        0.0000000000	        0.0000000000	        0.0000000000	        0.0000000000	        0.0000000000	        0.0000000000	
        0.1949633982	      -38.5430679005	      606.2202588919	      -19.9714258230	        0.2753831398	        0.0000000000	        0.0526231841	       -0.0490102678	        0.0219772762	        0.0034262673	        0.0000000000	        0.0000000000	        0.0000000000	        0.0000000000	        0.0000000000	        0.0000000000	        0.0000000000	        0.0000000000	        0.0000000000	
        0.2071486106	      -32.0975712076	      594.9395320685	      -19.8979862018	        0.2800446446	        0.0000000000	        0.0525460822	       -0.0635612303	        0.0277610871	        0.0043117909	        0.0000000000	        0.0000000000	        0.0000000000	        0.0000000000	        0.0000000000	        0.0000000000	        0.0000000000	        0.0000000000	        0.0000000000	
        0.2193338230	      -26.9085369480	      587.1176985389	      -19.7412343453	        0.2850411873	        0.0000000000	        0.0524211542	       -0.0964245046	        0.0411087434	        0.0063172035	        0.0000000000	        0.0000000000	        0.0000000000	        0.0000000000	        0.0000000000	        0.0000000000	        0.0000000000	        0.0000000000	        0.0000000000	
        0.2315190354	      -23.0870536244	      582.4344958144	      -19.6044127698	        0.2903166957	        0.0000000000	        0.0522286302	       -0.1624854027	        0.0677594001	        0.0102228517	        0.0000000000	        0.0000000000	        0.0000000000	        0.0000000000	        0.0000000000	        0.0000000000	        0.0000000000	        0.0000000000	        0.0000000000	
        0.2437042478	      -19.5710010299	      579.9391235289	      -19.6469849895	        0.2958049449	        0.0000000000	        0.0519678284	       -0.2858681079	        0.1168895520	        0.0172350572	        0.0000000000	        0.0000000000	        0.0000000000	        0.0000000000	        0.0000000000	        0.0000000000	        0.0000000000	        0.0000000000	        0.0000000000	
        0.2558894602	      -16.3735242250	      578.8654827880	      -19.6482214559	        0.3014617112	        0.0000000000	        0.0516478851	       -0.4941551225	        0.1986317994	        0.0284941294	        0.0000000000	        0.0000000000	        0.0000000000	        0.0000000000	        0.0000000000	        0.0000000000	        0.0000000000	        0.0000000000	        0.0000000000	
        0.2680746726	      -13.3926704467	      577.8296515898	      -19.9231624716	        0.3071060393	        0.0000000000	        0.0512939619	       -0.7999376691	        0.3169520768	        0.0441322738	        0.0000000000	        0.0000000000	        0.0000000000	        0.0000000000	        0.0000000000	        0.0000000000	        0.0000000000	        0.0000000000	        0.0000000000	
        0.2802598849	      -10.5327342724	      575.8533164321	      -20.2382421603	        0.3126397598	        0.0000000000	        0.0509294024	       -1.1744504127	        0.4599375880	        0.0620536076	        0.0000000000	        0.0000000000	        0.0000000000	        0.0000000000	        0.0000000000	        0.0000000000	        0.0000000000	        0.0000000000	        0.0000000000	
        0.2924450973	       -7.7836685004	      573.0157611355	      -20.3299326534	        0.3180657587	        0.0000000000	        0.0505608322	       -1.5424351421	        0.5985653677	        0.0780707907	        0.0000000000	        0.0000000000	        0.0000000000	        0.0000000000	        0.0000000000	        0.0000000000	        0.0000000000	        0.0000000000	        0.0000000000	
        0.3046303097	       -5.1243377246	      569.1608738524	      -20.0359520834	        0.3233609030	        0.0000000000	        0.0501935584	       -1.8206836144	        0.7016580779	        0.0877442586	        0.0000000000	        0.0000000000	        0.0000000000	        0.0000000000	        0.0000000000	        0.0000000000	        0.0000000000	        0.0000000000	        0.0000000000	
        0.3168155221	       -2.3816399864	      564.4242639766	      -19.1871686666	        0.3285390138	        0.0000000000	        0.0498260275	       -1.9635038996	        0.7527070218	        0.0882741328	        0.0000000000	        0.0000000000	        0.0000000000	        0.0000000000	        0.0000000000	        0.0000000000	        0.0000000000	        0.0000000000	        0.0000000000	
